<?xml version="1.0" encoding="utf-8"?><svg xmlns="http://www.w3.org/2000/svg" xmlns:xlink="http://www.w3.org/1999/xlink" width="1920" height="1007" preserveAspectRatio="xMidYMid" viewBox="0 0 1920 1007" style="z-index:1;margin-right:-2px;display:block;background-repeat-y:initial;background-repeat-x:initial;background-color:rgb(255, 255, 255);animation-play-state:paused" ><g transform="translate(960,503.5) scale(1,1) translate(-960,-503.5)" style="transform:matrix(1, 0, 0, 1, 0, 0);animation-play-state:paused" ><defs style="animation-play-state:paused" ><linearGradient id="ldbk-photon-li4enmwjg-lg" x1="935" x2="1920" y1="0" y2="0" gradientUnits="userSpaceOnUse" style="animation-play-state:paused" ><stop stop-color="#1d3f72" offset="0" style="animation-play-state:paused" ></stop>

    
<stop stop-color="#34ffef" offset="1" style="animation-play-state:paused" ></stop></linearGradient>

  
<mask id="ldbk-photon-li4enmwjg-mask" style="animation-play-state:paused" ><g style="animation-play-state:paused" ><path d="M2220 -0.5 L909.1110466559138 -0.5 A15 15 0 0 1 909.1110466559138 30.5 L2220 30.5" fill="#fff" transform="matrix(1,0,0,1,37.4197883605957,0)" style="transform:matrix(1, 0, 0, 1, 37.4198, 0);animation-play-state:paused" ></path>
<path d="M1982.35061617682 -0.5 L2014.70123235364 -0.5 A15 15 0 0 1 2014.70123235364 30.5 L1982.35061617682 30.5 A15 15 0 0 1 1982.35061617682 -0.5" fill="#000" transform="matrix(1,0,0,1,0,0)" opacity="1" style="transform:matrix(1, 0, 0, 1, 0, 0);animation-play-state:paused" ></path>
<path d="M2220 29.5 L899.6044651831965 29.5 A15 15 0 0 0 899.6044651831965 60.5 L2220 60.5" fill="#fff" transform="matrix(1,0,0,1,-21.078458786010742,0)" style="transform:matrix(1, 0, 0, 1, -21.0785, 0);animation-play-state:paused" ></path>
<path d="M1032.6276766405817 29.5 L1050.965615134554 29.5 A15 15 0 0 1 1050.965615134554 60.5 L1032.6276766405817 60.5 A15 15 0 0 1 1032.6276766405817 29.5" fill="#fff" transform="matrix(1,0,0,1,0,0)" opacity="1" style="transform:matrix(1, 0, 0, 1, 0, 0);animation-play-state:paused" ></path>
<path d="M2220 59.5 L938.5985143449801 59.5 A15 15 0 0 1 938.5985143449801 90.5 L2220 90.5" fill="#fff" transform="matrix(1,0,0,1,6.147602081298828,0)" style="transform:matrix(1, 0, 0, 1, 6.1476, 0);animation-play-state:paused" ></path>
<path d="M1987.7323725991134 59.5 L2025.4647451982269 59.5 A15 15 0 0 1 2025.4647451982269 90.5 L1987.7323725991134 90.5 A15 15 0 0 1 1987.7323725991134 59.5" fill="#000" transform="matrix(1,0,0,1,-869.3553466796875,0)" opacity="0.672269" style="transform:matrix(1, 0, 0, 1, -869.355, 0);opacity:0.672269;animation-play-state:paused" ></path>
<path d="M2220 89.5 L870.7163621997634 89.5 A15 15 0 0 0 870.7163621997634 120.5 L2220 120.5" fill="#fff" transform="matrix(1,0,0,1,-20.300941467285156,0)" style="transform:matrix(1, 0, 0, 1, -20.3009, 0);animation-play-state:paused" ></path>
<path d="M1009.0645606448397 89.5 L1044.5052221292517 89.5 A15 15 0 0 1 1044.5052221292517 120.5 L1009.0645606448397 120.5 A15 15 0 0 1 1009.0645606448397 89.5" fill="#fff" transform="matrix(1,0,0,1,0,0)" opacity="0.294118" style="transform:matrix(1, 0, 0, 1, 0, 0);opacity:0.294118;animation-play-state:paused" ></path>
<path d="M2220 119.5 L922.3200392471979 119.5 A15 15 0 0 1 922.3200392471979 150.5 L2220 150.5" fill="#fff" transform="matrix(1,0,0,1,45.0084228515625,0)" style="transform:matrix(1, 0, 0, 1, 45.0084, 0);animation-play-state:paused" ></path>
<path d="M1973.6746553452792 119.5 L1997.3493106905585 119.5 A15 15 0 0 1 1997.3493106905585 150.5 L1973.6746553452792 150.5 A15 15 0 0 1 1973.6746553452792 119.5" fill="#000" transform="matrix(1,0,0,1,-699.6846923828125,0)" opacity="0.92437" style="transform:matrix(1, 0, 0, 1, -699.685, 0);opacity:0.92437;animation-play-state:paused" ></path>
<path d="M2220 149.5 L912.1410241119693 149.5 A15 15 0 0 0 912.1410241119693 180.5 L2220 180.5" fill="#fff" transform="matrix(1,0,0,1,-7.468547821044922,0)" style="transform:matrix(1, 0, 0, 1, -7.46855, 0);animation-play-state:paused" ></path>
<path d="M977.7914747886775 149.5 L1015.7150584456157 149.5 A15 15 0 0 1 1015.7150584456157 180.5 L977.7914747886775 180.5 A15 15 0 0 1 977.7914747886775 149.5" fill="#fff" transform="matrix(1,0,0,1,0,0)" opacity="0.798319" style="transform:matrix(1, 0, 0, 1, 0, 0);opacity:0.798319;animation-play-state:paused" ></path>
<path d="M2220 179.5 L932.1438162460701 179.5 A15 15 0 0 1 932.1438162460701 210.5 L2220 210.5" fill="#fff" transform="matrix(1,0,0,1,1.7201464176177979,0)" style="transform:matrix(1, 0, 0, 1, 1.72015, 0);animation-play-state:paused" ></path>
<path d="M1965.926814131502 179.5 L1981.8536282630039 179.5 A15 15 0 0 1 1981.8536282630039 210.5 L1965.926814131502 210.5 A15 15 0 0 1 1965.926814131502 179.5" fill="#000" transform="matrix(1,0,0,1,-130.10728454589844,0)" opacity="1" style="transform:matrix(1, 0, 0, 1, -130.107, 0);animation-play-state:paused" ></path>
<path d="M2220 209.5 L884.6547401926798 209.5 A15 15 0 0 0 884.6547401926798 240.5 L2220 240.5" fill="#fff" transform="matrix(1,0,0,1,-14.703344345092773,0)" style="transform:matrix(1, 0, 0, 1, -14.7033, 0);animation-play-state:paused" ></path>
<path d="M998.4153023890105 209.5 L1036.0297280092852 209.5 A15 15 0 0 1 1036.0297280092852 240.5 L998.4153023890105 240.5 A15 15 0 0 1 998.4153023890105 209.5" fill="#fff" transform="matrix(1,0,0,1,0,0)" opacity="0.546219" style="transform:matrix(1, 0, 0, 1, 0, 0);opacity:0.546219;animation-play-state:paused" ></path>
<path d="M2220 239.5 L938.7233662104942 239.5 A15 15 0 0 1 938.7233662104942 270.5 L2220 270.5" fill="#fff" transform="matrix(1,0,0,1,1.537698745727539,0)" style="transform:matrix(1, 0, 0, 1, 1.5377, 0);animation-play-state:paused" ></path>
<path d="M1979.18137399613 239.5 L2008.3627479922602 239.5 A15 15 0 0 1 2008.3627479922602 270.5 L1979.18137399613 270.5 A15 15 0 0 1 1979.18137399613 239.5" fill="#000" transform="matrix(1,0,0,1,-638.671630859375,0)" opacity="0.840336" style="transform:matrix(1, 0, 0, 1, -638.672, 0);opacity:0.840336;animation-play-state:paused" ></path>
<path d="M2220 269.5 L894.2831991823873 269.5 A15 15 0 0 0 894.2831991823873 300.5 L2220 300.5" fill="#fff" transform="matrix(1,0,0,1,-3.2526683807373047,0)" style="transform:matrix(1, 0, 0, 1, -3.25267, 0);animation-play-state:paused" ></path>
<path d="M981.6368458729173 269.5 L1019.0245152076062 269.5 A15 15 0 0 1 1019.0245152076062 300.5 L981.6368458729173 300.5 A15 15 0 0 1 981.6368458729173 269.5" fill="#fff" transform="matrix(1,0,0,1,0,0)" opacity="0.588235" style="transform:matrix(1, 0, 0, 1, 0, 0);opacity:0.588235;animation-play-state:paused" ></path>
<path d="M2220 299.5 L935.6961289428921 299.5 A15 15 0 0 1 935.6961289428921 330.5 L2220 330.5" fill="#fff" transform="matrix(1,0,0,1,7.359371185302734,0)" style="transform:matrix(1, 0, 0, 1, 7.35937, 0);animation-play-state:paused" ></path>
<path d="M1982.3814497502392 299.5 L2014.7628995004784 299.5 A15 15 0 0 1 2014.7628995004784 330.5 L1982.3814497502392 330.5 A15 15 0 0 1 1982.3814497502392 299.5" fill="#000" transform="matrix(1,0,0,1,-1246.560546875,0)" opacity="0.504202" style="transform:matrix(1, 0, 0, 1, -1246.56, 0);opacity:0.504202;animation-play-state:paused" ></path>
<path d="M2220 329.5 L901.6224892532688 329.5 A15 15 0 0 0 901.6224892532688 360.5 L2220 360.5" fill="#fff" transform="matrix(1,0,0,1,-26.728443145751953,0)" style="transform:matrix(1, 0, 0, 1, -26.7284, 0);animation-play-state:paused" ></path>
<path d="M958.9832750902773 329.5 L998.907288524727 329.5 A15 15 0 0 1 998.907288524727 360.5 L958.9832750902773 360.5 A15 15 0 0 1 958.9832750902773 329.5" fill="#fff" transform="matrix(1,0,0,1,0,0)" opacity="0.12605" style="transform:matrix(1, 0, 0, 1, 0, 0);opacity:0.12605;animation-play-state:paused" ></path>
<path d="M2220 359.5 L929.2569902993248 359.5 A15 15 0 0 1 929.2569902993248 390.5 L2220 390.5" fill="#fff" transform="matrix(1,0,0,1,44.61295700073242,0)" style="transform:matrix(1, 0, 0, 1, 44.613, 0);animation-play-state:paused" ></path>
<path d="M1988.9231948982483 359.5 L2027.8463897964966 359.5 A15 15 0 0 1 2027.8463897964966 390.5 L1988.9231948982483 390.5 A15 15 0 0 1 1988.9231948982483 359.5" fill="#000" transform="matrix(1,0,0,1,-124.69808959960938,0)" opacity="1" style="transform:matrix(1, 0, 0, 1, -124.698, 0);animation-play-state:paused" ></path>
<path d="M2220 389.5 L905.4473149148976 389.5 A15 15 0 0 0 905.4473149148976 420.5 L2220 420.5" fill="#fff" transform="matrix(1,0,0,1,-41.454139709472656,0)" style="transform:matrix(1, 0, 0, 1, -41.4541, 0);animation-play-state:paused" ></path>
<path d="M978.8215420775061 389.5 L999.3295718479689 389.5 A15 15 0 0 1 999.3295718479689 420.5 L978.8215420775061 420.5 A15 15 0 0 1 978.8215420775061 389.5" fill="#fff" transform="matrix(1,0,0,1,0,0)" opacity="1" style="transform:matrix(1, 0, 0, 1, 0, 0);animation-play-state:paused" ></path>
<path d="M2220 419.5 L939.5240222534001 419.5 A15 15 0 0 1 939.5240222534001 450.5 L2220 450.5" fill="#fff" transform="matrix(1,0,0,1,11.089447021484375,0)" style="transform:matrix(1, 0, 0, 1, 11.0894, 0);animation-play-state:paused" ></path>
<path d="M1980.4625801484328 419.5 L2010.9251602968657 419.5 A15 15 0 0 1 2010.9251602968657 450.5 L1980.4625801484328 450.5 A15 15 0 0 1 1980.4625801484328 419.5" fill="#000" transform="matrix(1,0,0,1,-1092.2618408203125,0)" opacity="0.756303" style="transform:matrix(1, 0, 0, 1, -1092.26, 0);opacity:0.756303;animation-play-state:paused" ></path>
<path d="M2220 449.5 L915.5987577342418 449.5 A15 15 0 0 0 915.5987577342418 480.5 L2220 480.5" fill="#fff" transform="matrix(1,0,0,1,-38.56121826171875,0)" style="transform:matrix(1, 0, 0, 1, -38.5612, 0);animation-play-state:paused" ></path>
<path d="M993.7519832682652 449.5 L1005.2778833551762 449.5 A15 15 0 0 1 1005.2778833551762 480.5 L993.7519832682652 480.5 A15 15 0 0 1 993.7519832682652 449.5" fill="#fff" transform="matrix(1,0,0,1,0,0)" opacity="0.966387" style="transform:matrix(1, 0, 0, 1, 0, 0);opacity:0.966387;animation-play-state:paused" ></path>
<path d="M2220 479.5 L957.2596536605456 479.5 A15 15 0 0 1 957.2596536605456 510.5 L2220 510.5" fill="#fff" transform="matrix(1,0,0,1,2.2700347900390625,0)" style="transform:matrix(1, 0, 0, 1, 2.27003, 0);animation-play-state:paused" ></path>
<path d="M1984.6511312706218 479.5 L2019.3022625412436 479.5 A15 15 0 0 1 2019.3022625412436 510.5 L1984.6511312706218 510.5 A15 15 0 0 1 1984.6511312706218 479.5" fill="#000" transform="matrix(1,0,0,1,-1777.151611328125,0)" opacity="0.252101" style="transform:matrix(1, 0, 0, 1, -1777.15, 0);opacity:0.252101;animation-play-state:paused" ></path>
<path d="M2220 509.5 L897.6641767634211 509.5 A15 15 0 0 0 897.6641767634211 540.5 L2220 540.5" fill="#fff" transform="matrix(1,0,0,1,-6.432198523809163e-11,0)" style="transform:matrix(1, 0, 0, 1, -6.4322e-11, 0);animation-play-state:paused" ></path>
<path d="M1006.8424324517274 509.5 L1028.834226873094 509.5 A15 15 0 0 1 1028.834226873094 540.5 L1006.8424324517274 540.5 A15 15 0 0 1 1006.8424324517274 509.5" fill="#fff" transform="matrix(1,0,0,1,0,0)" opacity="0.714285" style="transform:matrix(1, 0, 0, 1, 0, 0);opacity:0.714285;animation-play-state:paused" ></path>
<path d="M2220 539.5 L942.1080657130906 539.5 A15 15 0 0 1 942.1080657130906 570.5 L2220 570.5" fill="#fff" transform="matrix(1,0,0,1,1.376654863357544,0)" style="transform:matrix(1, 0, 0, 1, 1.37665, 0);animation-play-state:paused" ></path>
<path d="M1980.64415398684 539.5 L2011.2883079736798 539.5 A15 15 0 0 1 2011.2883079736798 570.5 L1980.64415398684 570.5 A15 15 0 0 1 1980.64415398684 539.5" fill="#000" transform="matrix(1,0,0,1,-1057.6231689453125,0)" opacity="0.588235" style="transform:matrix(1, 0, 0, 1, -1057.62, 0);opacity:0.588235;animation-play-state:paused" ></path>
<path d="M2220 569.5 L926.3206846860083 569.5 A15 15 0 0 0 926.3206846860083 600.5 L2220 600.5" fill="#fff" transform="matrix(1,0,0,1,-5.429872512817383,0)" style="transform:matrix(1, 0, 0, 1, -5.42987, 0);animation-play-state:paused" ></path>
<path d="M1013.4513151923427 569.5 L1051.446548963329 569.5 A15 15 0 0 1 1051.446548963329 600.5 L1013.4513151923427 600.5 A15 15 0 0 1 1013.4513151923427 569.5" fill="#fff" transform="matrix(1,0,0,1,0,0)" opacity="0.462185" style="transform:matrix(1, 0, 0, 1, 0, 0);opacity:0.462185;animation-play-state:paused" ></path>
<path d="M2220 599.5 L971.9063098786546 599.5 A15 15 0 0 1 971.9063098786546 630.5 L2220 630.5" fill="#fff" transform="matrix(1,0,0,1,10.769412994384766,0)" style="transform:matrix(1, 0, 0, 1, 10.7694, 0);animation-play-state:paused" ></path>
<path d="M1961.2721046793326 599.5 L1972.5442093586653 599.5 A15 15 0 0 1 1972.5442093586653 630.5 L1961.2721046793326 630.5 A15 15 0 0 1 1961.2721046793326 599.5" fill="#000" transform="matrix(1,0,0,1,-635.4747314453125,0)" opacity="1" style="transform:matrix(1, 0, 0, 1, -635.475, 0);animation-play-state:paused" ></path>
<path d="M2220 629.5 L917.4101134575242 629.5 A15 15 0 0 0 917.4101134575242 660.5 L2220 660.5" fill="#fff" transform="matrix(1,0,0,1,-0.5792032480239868,0)" style="transform:matrix(1, 0, 0, 1, -0.579203, 0);animation-play-state:paused" ></path>
<path d="M1059.322231751876 629.5 L1075.5050272934725 629.5 A15 15 0 0 1 1075.5050272934725 660.5 L1059.322231751876 660.5 A15 15 0 0 1 1059.322231751876 629.5" fill="#fff" transform="matrix(1,0,0,1,0,0)" opacity="0.210084" style="transform:matrix(1, 0, 0, 1, 0, 0);opacity:0.210084;animation-play-state:paused" ></path>
<path d="M2220 659.5 L977.8040543975366 659.5 A15 15 0 0 1 977.8040543975366 690.5 L2220 690.5" fill="#fff" transform="matrix(1,0,0,1,34.81331253051758,0)" style="transform:matrix(1, 0, 0, 1, 34.8133, 0);animation-play-state:paused" ></path>
<path d="M1979.9856702175637 659.5 L2009.9713404351273 659.5 A15 15 0 0 1 2009.9713404351273 690.5 L1979.9856702175637 690.5 A15 15 0 0 1 1979.9856702175637 659.5" fill="#000" transform="matrix(1,0,0,1,-1843.0069580078125,0)" opacity="0.0840337" style="transform:matrix(1, 0, 0, 1, -1843.01, 0);opacity:0.0840337;animation-play-state:paused" ></path>
<path d="M2220 689.5 L947.3892203935987 689.5 A15 15 0 0 0 947.3892203935987 720.5 L2220 720.5" fill="#fff" transform="matrix(1,0,0,1,-29.310888290405273,0)" style="transform:matrix(1, 0, 0, 1, -29.3109, 0);animation-play-state:paused" ></path>
<path d="M1035.3607422229359 689.5 L1048.7207656231062 689.5 A15 15 0 0 1 1048.7207656231062 720.5 L1035.3607422229359 720.5 A15 15 0 0 1 1035.3607422229359 689.5" fill="#fff" transform="matrix(1,0,0,1,0,0)" opacity="1" style="transform:matrix(1, 0, 0, 1, 0, 0);animation-play-state:paused" ></path>
<path d="M2220 719.5 L999.9048422940981 719.5 A15 15 0 0 1 999.9048422940981 750.5 L2220 750.5" fill="#fff" transform="matrix(1,0,0,1,29.21805191040039,0)" style="transform:matrix(1, 0, 0, 1, 29.2181, 0);animation-play-state:paused" ></path>
<path d="M1966.942930463043 719.5 L1983.885860926086 719.5 A15 15 0 0 1 1983.885860926086 750.5 L1966.942930463043 750.5 A15 15 0 0 1 1966.942930463043 719.5" fill="#000" transform="matrix(1,0,0,1,-172.28138732910156,0)" opacity="1" style="transform:matrix(1, 0, 0, 1, -172.281, 0);animation-play-state:paused" ></path>
<path d="M2220 749.5 L920.3366275262374 749.5 A15 15 0 0 0 920.3366275262374 780.5 L2220 780.5" fill="#fff" transform="matrix(1,0,0,1,-18.949520111083984,0)" style="transform:matrix(1, 0, 0, 1, -18.9495, 0);animation-play-state:paused" ></path>
<path d="M1050.564809029072 749.5 L1072.7874796029153 749.5 A15 15 0 0 1 1072.7874796029153 780.5 L1050.564809029072 780.5 A15 15 0 0 1 1050.564809029072 749.5" fill="#fff" transform="matrix(1,0,0,1,0,0)" opacity="0.546218" style="transform:matrix(1, 0, 0, 1, 0, 0);opacity:0.546218;animation-play-state:paused" ></path>
<path d="M2220 779.5 L979.6403052247325 779.5 A15 15 0 0 1 979.6403052247325 810.5 L2220 810.5" fill="#fff" transform="matrix(1,0,0,1,39.01477813720703,0)" style="transform:matrix(1, 0, 0, 1, 39.0148, 0);animation-play-state:paused" ></path>
<path d="M1988.3291670559877 779.5 L2026.6583341119754 779.5 A15 15 0 0 1 2026.6583341119754 810.5 L1988.3291670559877 810.5 A15 15 0 0 1 1988.3291670559877 779.5" fill="#000" transform="matrix(1,0,0,1,-1087.2684326171875,0)" opacity="0.588235" style="transform:matrix(1, 0, 0, 1, -1087.27, 0);opacity:0.588235;animation-play-state:paused" ></path>
<path d="M2220 809.5 L920.4858058835589 809.5 A15 15 0 0 0 920.4858058835589 840.5 L2220 840.5" fill="#fff" transform="matrix(1,0,0,1,-39.80499267578125,0)" style="transform:matrix(1, 0, 0, 1, -39.805, 0);animation-play-state:paused" ></path>
<path d="M1060.967433540622 809.5 L1085.052035885064 809.5 A15 15 0 0 1 1085.052035885064 840.5 L1060.967433540622 840.5 A15 15 0 0 1 1060.967433540622 809.5" fill="#fff" transform="matrix(1,0,0,1,0,0)" opacity="0.882353" style="transform:matrix(1, 0, 0, 1, 0, 0);opacity:0.882353;animation-play-state:paused" ></path>
<path d="M2220 839.5 L993.8384682639505 839.5 A15 15 0 0 1 993.8384682639505 870.5 L2220 870.5" fill="#fff" transform="matrix(1,0,0,1,0.23557281494140625,0)" style="transform:matrix(1, 0, 0, 1, 0.235573, 0);animation-play-state:paused" ></path>
<path d="M1982.2844462828302 839.5 L2014.5688925656605 839.5 A15 15 0 0 1 2014.5688925656605 870.5 L1982.2844462828302 870.5 A15 15 0 0 1 1982.2844462828302 839.5" fill="#000" transform="matrix(1,0,0,1,-2226.765869140625,0)" opacity="0.0840337" style="transform:matrix(1, 0, 0, 1, -2226.77, 0);opacity:0.0840337;animation-play-state:paused" ></path>
<path d="M2220 869.5 L957.8370681183949 869.5 A15 15 0 0 0 957.8370681183949 900.5 L2220 900.5" fill="#fff" transform="matrix(1,0,0,1,-31.484758377075195,0)" style="transform:matrix(1, 0, 0, 1, -31.4848, 0);animation-play-state:paused" ></path>
<path d="M1008.560329682196 869.5 L1037.2805576257088 869.5 A15 15 0 0 1 1037.2805576257088 900.5 L1008.560329682196 900.5 A15 15 0 0 1 1008.560329682196 869.5" fill="#fff" transform="matrix(1,0,0,1,0,0)" opacity="0.630252" style="transform:matrix(1, 0, 0, 1, 0, 0);opacity:0.630252;animation-play-state:paused" ></path>
<path d="M2220 899.5 L977.9138889723997 899.5 A15 15 0 0 1 977.9138889723997 930.5 L2220 930.5" fill="#fff" transform="matrix(1,0,0,1,3.9701247215270996,0)" style="transform:matrix(1, 0, 0, 1, 3.97012, 0);animation-play-state:paused" ></path>
<path d="M1985.7542542580072 899.5 L2021.5085085160144 899.5 A15 15 0 0 1 2021.5085085160144 930.5 L1985.7542542580072 930.5 A15 15 0 0 1 1985.7542542580072 899.5" fill="#000" transform="matrix(1,0,0,1,-660.8623657226562,0)" opacity="1" style="transform:matrix(1, 0, 0, 1, -660.862, 0);animation-play-state:paused" ></path>
<path d="M2220 929.5 L945.5109914160234 929.5 A15 15 0 0 0 945.5109914160234 960.5 L2220 960.5" fill="#fff" transform="matrix(1,0,0,1,-0.21221923828125,0)" style="transform:matrix(1, 0, 0, 1, -0.212219, 0);animation-play-state:paused" ></path>
<path d="M996.1026256908838 929.5 L1026.7710212985257 929.5 A15 15 0 0 1 1026.7710212985257 960.5 L996.1026256908838 960.5 A15 15 0 0 1 996.1026256908838 929.5" fill="#fff" transform="matrix(1,0,0,1,0,0)" opacity="0.756303" style="transform:matrix(1, 0, 0, 1, 0, 0);opacity:0.756303;animation-play-state:paused" ></path>
<path d="M2220 959.5 L982.7124220435209 959.5 A15 15 0 0 1 982.7124220435209 990.5 L2220 990.5" fill="#fff" transform="matrix(1,0,0,1,38.131534576416016,0)" style="transform:matrix(1, 0, 0, 1, 38.1315, 0);animation-play-state:paused" ></path>
<path d="M1964.9802836883919 959.5 L1979.9605673767837 959.5 A15 15 0 0 1 1979.9605673767837 990.5 L1964.9802836883919 990.5 A15 15 0 0 1 1964.9802836883919 959.5" fill="#000" transform="matrix(1,0,0,1,-996.85400390625,0)" opacity="0.504202" style="transform:matrix(1, 0, 0, 1, -996.854, 0);opacity:0.504202;animation-play-state:paused" ></path>
<path d="M2220 989.5 L915.8961425632405 989.5 A15 15 0 0 0 915.8961425632405 1020.5 L2220 1020.5" fill="#fff" transform="matrix(1,0,0,1,-23.9287109375,0)" style="transform:matrix(1, 0, 0, 1, -23.9287, 0);animation-play-state:paused" ></path>
<path d="M1005.5168219817095 989.5 L1042.7081671378278 989.5 A15 15 0 0 1 1042.7081671378278 1020.5 L1005.5168219817095 1020.5 A15 15 0 0 1 1005.5168219817095 989.5" fill="#fff" transform="matrix(1,0,0,1,0,0)" opacity="0.12605" style="transform:matrix(1, 0, 0, 1, 0, 0);opacity:0.12605;animation-play-state:paused" ></path></g></mask></defs>


<rect x="0" y="0" width="1920" height="1007" fill="url(#ldbk-photon-li4enmwjg-lg)" mask="url(#ldbk-photon-li4enmwjg-mask)" style="animation-play-state:paused" ></rect></g></svg>